<svg width="110" height="110" viewBox="0 0 110 110" fill="none" xmlns="http://www.w3.org/2000/svg"><script xmlns="" id="dashlane_tiresias"/><script xmlns="" id="dashlane_webauthn"/>
<g clip-path="url(#clip0_68_661)">
<path d="M5.5 89.8333H14.6667V100.833C14.6724 105.892 18.7745 109.994 23.8333 110H86.1667C91.2255 109.994 95.3276 105.892 95.3333 100.833V89.8333H104.5C107.536 89.8333 110 87.3698 110 84.3333V66C110 62.9635 107.536 60.5 104.5 60.5H95.3333V49.5C95.3276 44.4411 91.2255 40.3391 86.1667 40.3333V31.1667C86.1667 13.9534 72.2133 0 55 0C37.7867 0 23.8333 13.9534 23.8333 31.1667V40.3333C18.7745 40.3391 14.6724 44.4411 14.6667 49.5V60.5H5.5C2.46354 60.5 0 62.9635 0 66V84.3333C0 87.3727 2.46354 89.8333 5.5 89.8333ZM91.6667 100.833C91.6667 103.873 89.2031 106.333 86.1667 106.333H23.8333C20.7969 106.333 18.3333 103.873 18.3333 100.833V89.8333H91.6667V100.833ZM27.5 31.1667C27.5 15.9786 39.812 3.66667 55 3.66667C70.188 3.66667 82.5 15.9786 82.5 31.1667V40.3333H75.1667V31.1667C75.1667 20.0292 66.1375 11 55 11C43.8625 11 34.8333 20.0292 34.8333 31.1667V40.3333H27.5V31.1667ZM38.5 40.3333V31.1667C38.5 22.0544 45.8878 14.6667 55 14.6667C64.1122 14.6667 71.5 22.0544 71.5 31.1667V40.3333H38.5ZM18.3333 49.5C18.3333 46.4607 20.7969 44 23.8333 44H86.1667C89.2031 44 91.6667 46.4607 91.6667 49.5V60.5H18.3333V49.5ZM3.66667 66C3.66667 64.9888 4.48594 64.1667 5.5 64.1667H104.5C105.514 64.1667 106.333 64.9888 106.333 66V84.3333C106.333 85.3474 105.514 86.1667 104.5 86.1667H5.5C4.48594 86.1667 3.66667 85.3445 3.66667 84.3333V66Z" fill="#07294D"/>
<path d="M7.64275 79.8503C7.91202 80.2542 8.33311 80.5349 8.80863 80.6295C9.28415 80.724 9.78259 80.6295 10.1865 80.3573L12.8362 78.5899V80.6667C12.8362 81.6779 13.6555 82.5 14.6696 82.5C15.6836 82.5 16.5029 81.6779 16.5029 80.6667V78.5899L19.1526 80.3573C19.6969 80.7211 20.3959 80.767 20.9831 80.4748C21.5703 80.1854 21.9599 79.6039 22 78.9508C22.043 78.2977 21.7336 77.6703 21.1865 77.3065L17.9696 75.1638L21.1808 73.024C21.725 72.6602 22.0344 72.0328 21.9943 71.3797C21.9513 70.7237 21.5646 70.1451 20.9774 69.8529C20.3901 69.5636 19.6912 69.6065 19.1469 69.9703L16.5029 71.7378V69.661C16.5029 68.6498 15.6808 67.8276 14.6696 67.8276C13.6584 67.8276 12.8362 68.6469 12.8362 69.661V71.7378L10.1865 69.9703C9.34431 69.4089 8.20707 69.6352 7.64275 70.4774C7.08129 71.3196 7.30759 72.4597 8.14978 73.0211L11.3667 75.161L8.14978 77.3037C7.74587 77.5729 7.46514 77.994 7.36775 78.4696C7.27321 78.9451 7.37061 79.4407 7.63988 79.8474L7.64275 79.8503Z" fill="#0C8B51"/>
<path d="M27.8064 79.8503C28.0757 80.2542 28.4968 80.5349 28.9723 80.6295C29.4507 80.724 29.9434 80.6295 30.3502 80.3573L32.9999 78.5899V80.6667C32.9999 81.6779 33.8221 82.5 34.8333 82.5C35.8445 82.5 36.6666 81.6779 36.6666 80.6667V78.5899L39.3163 80.3573C39.8606 80.7211 40.5596 80.767 41.1468 80.4748C41.734 80.1854 42.1208 79.6039 42.1637 78.9508C42.2067 78.2977 41.8973 77.6703 41.3502 77.3065L38.1333 75.1638L41.3445 73.024C41.8887 72.6602 42.1981 72.0328 42.158 71.3797C42.115 70.7237 41.7283 70.1451 41.1411 69.8529C40.5538 69.5636 39.8577 69.6065 39.3106 69.9703L36.6666 71.7378V69.661C36.6666 68.6498 35.8445 67.8276 34.8333 67.8276C33.8221 67.8276 32.9999 68.6469 32.9999 69.661V71.7378L30.3502 69.9703C29.508 69.4089 28.3679 69.6352 27.8064 70.4774C27.245 71.3196 27.4713 72.4597 28.3135 73.0211L31.5304 75.161L28.3192 77.3037C27.9153 77.5729 27.6317 77.9912 27.5372 78.4696C27.4426 78.9479 27.5372 79.4407 27.8064 79.8474V79.8503Z" fill="#0C8B51"/>
<path d="M68.1425 79.8503C68.4117 80.2542 68.8328 80.5349 69.3084 80.6295C69.7839 80.724 70.2795 80.6295 70.6862 80.3573L73.336 78.5899V80.6667C73.336 81.6779 74.1581 82.5 75.1693 82.5C76.1805 82.5 77.0026 81.6779 77.0026 80.6667V78.5899L79.6524 80.3573C80.1966 80.7211 80.8956 80.767 81.4828 80.4748C82.0701 80.1854 82.4597 79.6039 82.4998 78.9508C82.5427 78.2977 82.2334 77.6703 81.6862 77.3065L78.4693 75.1638L81.6805 73.024C82.2248 72.6602 82.5341 72.0328 82.494 71.3797C82.4511 70.7237 82.0643 70.1451 81.4771 69.8529C80.8899 69.5636 80.1909 69.6065 79.6466 69.9703L77.0026 71.7378V69.661C77.0026 68.6498 76.1805 67.8276 75.1693 67.8276C74.1581 67.8276 73.336 68.6469 73.336 69.661V71.7378L70.6862 69.9703C69.844 69.4089 68.7039 69.6352 68.1425 70.4774C67.581 71.3196 67.8073 72.4597 68.6495 73.0211L71.8664 75.161L68.6552 77.3037C68.2485 77.5729 67.9677 77.9912 67.8703 78.4696C67.7729 78.9451 67.8703 79.4407 68.1425 79.8474V79.8503Z" fill="#0C8B51"/>
<path d="M47.976 79.8503C48.2452 80.2542 48.6663 80.5349 49.1419 80.6295C49.6174 80.724 50.113 80.6295 50.5197 80.3573L53.1695 78.5899V80.6667C53.1695 81.6779 53.9887 82.5 55.0028 82.5C56.0169 82.5 56.8361 81.6779 56.8361 80.6667V78.5899L59.4859 80.3573C60.0301 80.7211 60.7291 80.767 61.3163 80.4748C61.9036 80.1854 62.2932 79.6039 62.3333 78.9508C62.3762 78.2977 62.0669 77.6703 61.5226 77.3065L58.3057 75.1638L61.5169 73.024C62.0611 72.6602 62.3705 72.0328 62.3275 71.3797C62.2874 70.7237 61.8978 70.1451 61.3106 69.8529C60.7234 69.5636 60.0273 69.6065 59.4801 69.9703L56.8361 71.7378V69.661C56.8361 68.6498 56.0169 67.8276 55.0028 67.8276C53.9887 67.8276 53.1695 68.6469 53.1695 69.661V71.7378L50.5197 69.9703C49.6775 69.4089 48.5403 69.6352 47.976 70.4774C47.4145 71.3196 47.6408 72.4597 48.483 73.0211L51.6999 75.161L48.4887 77.3037C48.0848 77.5729 47.8012 77.9912 47.7038 78.4696C47.6064 78.9479 47.7038 79.4407 47.976 79.8474V79.8503Z" fill="#0C8B51"/>
<path d="M29.3333 47.6665H23.8333C22.8221 47.6665 22 48.4886 22 49.4998V54.9998C22 56.011 22.8193 56.8332 23.8333 56.8332C24.8474 56.8332 25.6667 56.0139 25.6667 54.9998V51.3332H29.3333C30.3474 51.3332 31.1667 50.5139 31.1667 49.4998C31.1667 48.4858 30.3445 47.6665 29.3333 47.6665Z" fill="#0C8B51"/>
<path d="M89.8333 82.5002H100.833C101.845 82.5002 102.667 81.678 102.667 80.6668C102.667 79.6556 101.847 78.8335 100.833 78.8335H89.8333C88.8193 78.8335 88 79.6556 88 80.6668C88 81.678 88.8221 82.5002 89.8333 82.5002Z" fill="#0C8B51"/>
</g>
<defs>
<clipPath id="clip0_68_661">
<rect width="110" height="110" fill="white"/>
</clipPath>
</defs>
</svg>